<?xml version="1.0" encoding="utf-8"?>
<!-- Generator: Adobe Illustrator 19.2.1, SVG Export Plug-In . SVG Version: 6.00 Build 0)  -->
<svg version="1.1" id="Layer_1" xmlns="http://www.w3.org/2000/svg" xmlns:xlink="http://www.w3.org/1999/xlink" x="0px" y="0px"
	 viewBox="0 0 330.4 198.4" style="enable-background:new 0 0 330.4 198.4;" xml:space="preserve">
<style type="text/css">
	.st0{fill:#606060;}
</style>
<g>
	<path class="st0" d="M104.2,100.5c-1,0.2-2.3,0.3-3.8,0.3c-1.5,0-2.8-0.1-3.8-0.3v-34l0.4-0.3h21.3c0.2,0.8,0.4,1.8,0.4,3
		c0,2.4-1.4,3.6-4.1,3.6h-10.2c0,0.9,0,2.3,0,4.2v3.4h10.9c0.3,0.8,0.4,1.9,0.4,3.1c0,1.3-0.1,2.3-0.4,3.1h-10.9V100.5z"/>
	<path class="st0" d="M131.7,98c-3.6-3-5.4-7.9-5.4-14.7c0-6.9,1.8-11.8,5.4-14.8c2.6-2.1,5.7-3.2,9.5-3.2c3.7,0,6.9,1.1,9.4,3.2
		c3.6,3,5.4,7.9,5.4,14.8c0,6.8-1.8,11.8-5.4,14.7c-2.6,2.1-5.7,3.2-9.4,3.2C137.4,101.2,134.3,100.2,131.7,98z M141.1,71.3
		c-4.5,0-6.8,4-6.8,12c0,8,2.3,12,6.8,12c4.5,0,6.8-4,6.8-12C147.9,75.3,145.6,71.3,141.1,71.3z"/>
	<path class="st0" d="M183.8,66.1c0.8-0.2,1.9-0.3,3.3-0.3c1.4,0,2.7,0.2,3.9,0.7l0.2,0.4l-9.4,15.6l10.5,16.8
		c-1.6,1.1-3.1,1.7-4.5,1.7c-1.4,0-2.5-0.2-3.2-0.7c-0.7-0.4-1.5-1.2-2.2-2.4l-5.5-8.9l-6.8,11.5c-0.8,0.2-1.9,0.3-3.3,0.3
		c-1.4,0-2.7-0.2-4-0.6l-0.2-0.5l10.4-16.9l-9.5-15.4c1.6-1.1,3.1-1.7,4.5-1.7c1.4,0,2.5,0.2,3.2,0.7c0.7,0.4,1.4,1.2,2.1,2.3
		l4.7,7.5L183.8,66.1z"/>
	<path class="st0" d="M236.7,79.6l-0.1-3.7v-9.8c1-0.2,2.3-0.3,3.8-0.3c1.6,0,2.8,0.1,3.8,0.3v34.3c-1,0.2-2.3,0.3-3.8,0.3
		c-1.5,0-2.8-0.1-3.8-0.3V89.7l0.1-3.7l-2.6,0H228l-2.6,0l0,3.7v10.8c-1,0.2-2.3,0.3-3.9,0.3c-1.6,0-2.8-0.1-3.8-0.3V66.1
		c1-0.2,2.2-0.3,3.8-0.3c1.6,0,2.9,0.1,3.9,0.3v9.8l0,3.7l2.6,0h6.2L236.7,79.6z"/>
	<path class="st0" d="M257.3,100.5V66.1c1-0.2,2.3-0.3,3.8-0.3c1.6,0,2.8,0.1,3.8,0.3v34.3c-1,0.2-2.3,0.3-3.8,0.3
		C259.6,100.8,258.3,100.7,257.3,100.5z"/>
	<path class="st0" d="M290.3,94h8.9c0,1.1-0.1,2.1-0.2,2.9c-0.4,2.5-2.1,3.8-5,3.8h-11.6c-1.4,0-2.5-0.4-3.3-1.2
		c-0.8-0.8-1.2-1.9-1.2-3.3V66.1l0.4-0.3h2.8c3,0,4.5,1.6,4.5,4.8v23.5C287.3,94,288.9,94,290.3,94z"/>
	<path class="st0" d="M321.5,94h8.9c0,1.1-0.1,2.1-0.2,2.9c-0.4,2.5-2.1,3.8-5,3.8h-11.6c-1.4,0-2.5-0.4-3.3-1.2
		c-0.8-0.8-1.2-1.9-1.2-3.3V66.1l0.4-0.3h2.8c3,0,4.5,1.6,4.5,4.8v23.5C318.5,94,320.1,94,321.5,94z"/>
</g>
<path class="st0" d="M268.2,127.2c-1.8,3.4-5.8,10.9-10.4,10.6c-6.3-0.4-2.1-12.1-3.1-13.2c-1.4-1.5-3.5-1.8-4.2,0
	c-0.7,1.8-4.2,11.9-5,11.8c-0.8-0.2-0.1-7.8-0.1-9c-0.1-3.6-3.4-4-4.6-1.8c-0.6,1.1-4.6,11.8-5.8,11.2c-0.8-0.3,0.7-7.1-0.2-9.7
	c-1-2.7-2.6-2.7-3.6-1.2c-0.3,0.5-0.6,0.9-0.8,1.3c-0.1,0.1-0.1,0.2-0.2,0.3c-1.9,3.4-5.5,9.8-9.4,9.8c-3.2,0-3.6-2.8-3.5-6.2
	c0-3.4,1-3.4,1.2-5.2c0-0.2,0.4-2.2-0.7-2.9c-1.8-1-3.5,0.2-4,0.5c-0.2,0.1-0.8,0.3-1.1-0.1c-0.4-0.4,0.4-1.2,0.4-1.9
	c0.1-0.6-0.6-2.5-1.8-2.6c-1.4-0.2-2.2,2.7-2.2,5.3c0,1.6,0.1,1.4-0.2,1.9c-0.7,1.4-1.3,2.3-1.7,3.2c0,0,0,0,0,0
	c-3.7,6.2-6.4,8.2-8.6,8.2c-5.4,0-2.5-8.6-2.4-8.6c0.2-1.3-2.8-1.9-3-1.1c-0.3,2-2.8,10-5.8,10c-1.9,0-2.5-3.8-1.6-7.4
	c0.8-3.6,3.1-7.1,5.4-7c2.7,0.1,2.2,3.4,2.2,3.4c0.6,0.2,1.4,0.8,2-1.3c0.1-0.4,0.5-4.4-4.2-4.6c-2.3-0.1-6.6,2.6-8.1,8.6
	c-1.9,3.2-5.1,7.7-8.9,8.3c-1.8-1.8-4.6-2.7-7-2.2c3-22,8.2-33.8,8.2-33.8c0.4-1.5-2.6-4.6-3.4-1.9c-4,12.3-8.1,34.2-9.9,54.3
	c-1,11.4,2.5,19.6,8.4,19.8c6.4,0.2,9-11.1,9.4-16.9c0.6-8.4-1.4-13.9-3.8-17.2c3-0.9,5.2-3.2,6.6-5.3c0.2,5.1,3.2,6.1,4.5,6.1
	c2.8,0.1,5.7-5.2,5.7-5.2s0.7,4.9,5.5,4.8c4.7-0.1,8.7-6.6,10.1-9.2c1-1.7,1.6-3,2.1-3.8c0.4-0.7,1.1-0.2,2.2-0.2c1,0,1-1.3,1.9-0.6
	c0.5,0.5-0.9,1.8-0.6,5.5c0,1.5,0.3,7.7,6.3,8c5.5,0.3,9.4-7.7,10.1-8.8c0-0.1,0-0.1,0.1-0.2c0,0,0,0,0,0c1-1.9,1.4-2.5,1.6-2.5
	c1.8,0-2.1,11.9,2.2,12.3c3.7,0.3,6.7-12.1,7.8-12c2.1,0.1-1.5,10.9,2.7,11c4,0.1,6.6-13.1,7.2-13c0.6,0-3.3,13.7,5.3,13.9
	c6.2,0.2,10.4-8.5,11-9.6C270,127.7,268.9,125.9,268.2,127.2z M177.4,155.7c-0.9,10.4-3.2,15.5-7,15.4v0.1
	c-7.6-0.2-5.2-19.6-3.4-33.2c1.4,1.5,4.4,2.2,6.4,2.2C175.8,142,178.2,146,177.4,155.7z"/>
<g>
	<g>
		<path class="st0" d="M17.4,106.5l1.9-1.4c0,0,0,0,0,0l-0.7-1.8l-2.4,0l-0.7,1.8c0,0,0,0,0,0L17.4,106.5z"/>
		<path class="st0" d="M32.1,134.8C32.1,134.8,32.1,134.8,32.1,134.8l1.9,1.4l1.9-1.4c0,0,0,0,0,0l-0.7-1.8l-2.4,0L32.1,134.8z"/>
		<path class="st0" d="M14,124.7C14,124.7,14,124.7,14,124.7l1.9,1.4l1.9-1.4c0,0,0,0,0,0l-0.7-1.8l-2.4,0L14,124.7z"/>
		<path class="st0" d="M51.5,107.8C51.5,107.8,51.5,107.8,51.5,107.8l1.9,1.4l1.9-1.4c0,0,0,0,0,0l-0.7-1.8l-2.4,0L51.5,107.8z"/>
		<path class="st0" d="M50.1,128C50.1,128,50.1,128,50.1,128l1.9,1.4l1.9-1.4c0,0,0,0,0,0l-0.7-1.8l-2.4,0L50.1,128z"/>
		<path class="st0" d="M33.7,114.3C33.7,114.3,33.7,114.3,33.7,114.3l1.9,1.4l1.9-1.4c0,0,0,0,0,0l-0.7-1.8l-2.4,0L33.7,114.3z"/>
		<path class="st0" d="M83.5,158.4c-7.1-1.8-13.4-4.4-16.1-8.4c-1.7-2.8-2.5-6.5-2.8-9.5c-0.2-2.5,0.3-7.3,0.4-8.5
			c1.6-10.6,3.1-21.1-0.5-31.8c-0.8-2.5-3.1-7.6-3-7.6c2.1-11.2-0.8-23.1-2.4-28.4c0.6,0.1,3.4-3.2,4-3.1c-0.1-0.2-0.2-0.5-0.3-0.8
			c3.1-1.6,6.1-4.3,8.2-7.4c-3.1-2.1-10.3-9.5-10.8-10.5c-0.2-2.4-0.7-4.6-0.3-7.2c0.9-5.9,6.9-13.4,3.3-33.8
			c-4.1,2.7-8.1,4.2-11.7,8c-2,2.1-4.5,9.7-9.1,12.5c-2.1-0.2-3.9-0.3-4.9-3.2c-1,0.8-1.3,2.2-0.9,3.5c-1.1-0.2-2.1-0.9-2.7-2
			c-0.2,0.8-0.7,0.9-0.4,2c-1-0.4-2-0.6-3-0.6c-1.1-1-2.3-2.5-3.2-3.2C25.6,17.1,15.8,3.8,4.3,0C4.2,2.5,5.1,5.1,5.2,7.6
			c0.1,2.6,0.3,4.8,1,7.2c1.8,6.3,3.5,11.5,4,18.1c0.2,2.5,0,4.9,1.2,7c-0.9,1.8-2.7,3.5-3.4,5.2c0.5,0,1.1,0.1,1.5,0.1
			c-1,1.1-1.8,2.5-2.2,4c0.1,0,0.2,0,0.3,0c-2.8,2.3-5.2,4.4-6.7,5.6c3,4.2,8,7.6,12.4,8.5C11.4,69,10,77.3,10.1,91
			c-2.1,4.1-4.4,7.7-6.2,11.8c-5,11.9-3.2,25.1-1,37c1,5.1-0.9,6.7-2.2,11.6c-1.4,5.4-0.5,9.9,0.3,15c1-0.5,1.1-0.6,1.8-0.7
			c-0.3,1.1,0.1,2.4-0.1,3.5c0.7-0.6,1.2-1,2-1.5c0.2,4.4,2.7,5.8,5.8,8.3c5.4,4.2-5.6,8-5.9,12.3c-0.1,1.4,0.3,2.3,1,2.8
			c3,2.2,11.8-2.2,14.6-3.4c0.1,1.2,0.6,2.2,0,3.4c-0.4,0.9-1.5,1.6-2.1,2.4c-3.4,4.6,7.3,4.2,10.1,2.6c0.3-0.2,0.7-0.5,1.2-0.9
			c0.1-0.1,0.3-0.2,0.4-0.4c1.1-4.1,1.5-12,1.6-16.9c-0.2,0-0.3-0.3-0.3-0.6v-3.8c0-0.2,0.1-0.4,0.1-0.5
			c-1.5-11.7-12.1-36.9-12.9-38.1c-0.2-0.4-0.1-0.8,0.2-1c0.4-0.2,0.8-0.1,1.1,0.2c0.8,1.3,6.2,14.3,9.9,25.9
			c-2.2-9-4.9-17.6-5.8-19.9c-0.1-0.4,0-0.8,0.4-1c0.4-0.2,0.8,0,1,0.4c0.9,2.4,3.9,11.9,6.2,21.5c-0.8-6.7-1.8-14-1.9-14.8
			c-0.1-0.4,0.2-0.8,0.6-0.9c0.4-0.1,0.8,0.2,0.9,0.6c0,0.1,1.3,9.3,2.2,16.8l0-19.8c0-0.4,0.3-0.8,0.8-0.8l0,0
			c0.4,0,0.8,0.3,0.8,0.8l0,18.9c0.7-6.9,1.4-12.9,1.6-15.3c0-0.4,0.4-0.7,0.8-0.7c0.4,0,0.7,0.4,0.7,0.8c-0.3,2.6-1,9.2-1.8,16.5
			c2.3-9.7,5.5-21.5,6.4-24.2c0.1-0.4,0.6-0.6,1-0.5c0.4,0.1,0.6,0.6,0.5,1c-0.8,2.6-4,13.9-6.2,23.5c3.2-10.7,8.4-23.5,9.1-24.8
			c0.2-0.4,0.7-0.5,1-0.3c0.4,0.2,0.5,0.7,0.3,1c-0.9,1.7-9.8,24.3-11.3,34c0.1,0.1,0.2,0.3,0.2,0.5v3.8c0,0.3-0.1,0.6-0.3,0.6
			c0,4.1,0.4,11,1.4,15.3c1.7,1.3,2.8,3.1,4.6,4.4c3,2.1,9.2,0.7,8.5-3c-0.1-0.3-0.1-0.6-0.2-0.8L49,190c-0.3-0.5-0.6-1.6-0.7-2.5
			c-0.1-1.7,1.6-2.4,2.8-1.8c0.1,0.1,0.7,0.3,0.8,0.3c3.9,2.2,11.2,4.8,10.9-1c-0.2-4-7.1-6.3-4.7-10c0.2-0.3,0.4-0.6,0.7-0.9
			c1.2-1.2,2.4-1.7,3.2-2.5c4.7,3.6,10.5,4.8,15.9,6.3c10,2.8,14.2,8.1,15.4,10.2c1.3,2.4,2.3,5.1,2.3,8.1
			C109.3,176.3,98.8,162.3,83.5,158.4z M34.3,92.1c-5.4-10.7,8.9-10.7,3.5,0c8.2-9.2,13.5,4.6,1,3.1c10.9,5.6-0.9,14.1-2.7,2
			c-1.8,12.1-13.6,3.7-2.7-2C20.9,96.7,26.2,82.9,34.3,92.1z M35.6,116.7c-1.8,12.1-13.6,3.7-2.7-2c-12.5,1.5-7.2-12.3,1-3.1
			c-5.4-10.7,8.9-10.7,3.5,0c8.2-9.2,13.5,4.6,1,3.1C49.3,120.3,37.4,128.8,35.6,116.7z M15.6,102.4c-5.4-10.7,8.9-10.7,3.5,0
			c8.2-9.2,13.5,4.6,1,3.1c10.9,5.6-0.9,14.1-2.7,2c-1.8,12.1-13.6,3.7-2.7-2C2.2,107,7.5,93.2,15.6,102.4z M15.9,127
			c-1.8,12.1-13.6,3.7-2.7-2c-12.5,1.5-7.2-12.3,1-3.1c-5.4-10.7,8.9-10.7,3.5,0c8.2-9.2,13.5,4.6,1,3.1
			C29.5,130.7,17.7,139.2,15.9,127z M36.7,135.1c10.9,5.6-0.9,14.1-2.7,2c-1.8,12.1-13.6,3.7-2.7-2c-12.5,1.5-7.2-12.3,1-3.1
			c-5.4-10.7,8.9-10.7,3.5,0C43.9,122.8,49.2,136.6,36.7,135.1z M54.8,128.3c10.9,5.6-0.9,14.1-2.7,2c-1.8,12.1-13.6,3.7-2.7-2
			c-12.5,1.5-7.2-12.3,1-3.1c-5.4-10.7,8.9-10.7,3.5,0C62,116,67.3,129.8,54.8,128.3z M56.1,108.2c10.9,5.6-0.9,14.1-2.7,2
			c-1.8,12.1-13.6,3.7-2.7-2c-12.5,1.5-7.2-12.3,1-3.1c-5.4-10.7,8.9-10.7,3.5,0C63.3,95.9,68.6,109.7,56.1,108.2z"/>
		<path class="st0" d="M36.1,96.2l1.9-1.4c0,0,0,0,0,0L37.3,93l-2.4,0l-0.7,1.8c0,0,0,0,0,0L36.1,96.2z"/>
	</g>
	<circle class="st0" cx="36.4" cy="94" r="2.9"/>
	<circle class="st0" cx="53.4" cy="107.3" r="2.9"/>
	<circle class="st0" cx="35.6" cy="113.9" r="2.9"/>
	<ellipse class="st0" cx="17.4" cy="104.6" rx="2.9" ry="2.9"/>
	<circle class="st0" cx="15.9" cy="124.2" r="2.9"/>
	<circle class="st0" cx="34" cy="134.3" r="2.9"/>
	<ellipse class="st0" cx="52.1" cy="127.5" rx="2.9" ry="2.9"/>
</g>
</svg>
