<?xml version="1.0" encoding="UTF-8" standalone="no"?>
<!DOCTYPE svg PUBLIC "-//W3C//DTD SVG 1.1//EN"
 "http://www.w3.org/Graphics/SVG/1.1/DTD/svg11.dtd">
<!-- Generated by graphviz version 2.36.0 (20140111.2315)
 -->
<!-- Title: G Pages: 1 -->
<svg width="446pt" height="4082pt"
 viewBox="0.00 0.00 446.00 4082.00" xmlns="http://www.w3.org/2000/svg" xmlns:xlink="http://www.w3.org/1999/xlink">
<g id="graph0" class="graph" transform="scale(1 1) rotate(0) translate(4 4078)">
<title>G</title>
<polygon fill="white" stroke="none" points="-4,4 -4,-4078 442,-4078 442,4 -4,4"/>
<g id="clust1" class="cluster"><title>cluster_Global</title>
<path fill="none" stroke="gray" d="M20,-152C20,-152 418,-152 418,-152 424,-152 430,-158 430,-164 430,-164 430,-4054 430,-4054 430,-4060 424,-4066 418,-4066 418,-4066 20,-4066 20,-4066 14,-4066 8,-4060 8,-4054 8,-4054 8,-164 8,-164 8,-158 14,-152 20,-152"/>
<text text-anchor="middle" x="219" y="-4053.2" font-family="Times,serif" font-size="11.00" fill="gray">Global</text>
</g>
<g id="clust2" class="cluster"><title>cluster_\Grunt</title>
<path fill="none" stroke="gray" d="M302,-3930C302,-3930 364,-3930 364,-3930 370,-3930 376,-3936 376,-3942 376,-3942 376,-4026 376,-4026 376,-4032 370,-4038 364,-4038 364,-4038 302,-4038 302,-4038 296,-4038 290,-4032 290,-4026 290,-4026 290,-3942 290,-3942 290,-3936 296,-3930 302,-3930"/>
<text text-anchor="middle" x="333" y="-4025.2" font-family="Times,serif" font-size="11.00" fill="gray">Grunt</text>
</g>
<g id="clust3" class="cluster"><title>cluster_\Grunt\PhpCs</title>
<path fill="none" stroke="gray" d="M310,-3938C310,-3938 356,-3938 356,-3938 362,-3938 368,-3944 368,-3950 368,-3950 368,-3998 368,-3998 368,-4004 362,-4010 356,-4010 356,-4010 310,-4010 310,-4010 304,-4010 298,-4004 298,-3998 298,-3998 298,-3950 298,-3950 298,-3944 304,-3938 310,-3938"/>
<text text-anchor="middle" x="333" y="-3997.2" font-family="Times,serif" font-size="11.00" fill="gray">PhpCs</text>
</g>
<!-- \\Grunt\\PhpCs\\World -->
<g id="node1" class="node"><title>\\Grunt\\PhpCs\\World</title>
<polygon fill="none" stroke="black" points="360,-3982 306,-3982 306,-3946 360,-3946 360,-3982"/>
<text text-anchor="middle" x="333" y="-3961.2" font-family="Times,serif" font-size="11.00">World</text>
</g>
<!-- \\WPV_Editor -->
<g id="node2" class="node"><title>\\WPV_Editor</title>
<polygon fill="none" stroke="black" points="370,-3922 296,-3922 296,-3886 370,-3886 370,-3922"/>
<text text-anchor="middle" x="333" y="-3901.2" font-family="Times,serif" font-size="11.00">WPV_Editor</text>
</g>
<!-- \\WPV_Editor_Parser -->
<g id="node3" class="node"><title>\\WPV_Editor_Parser</title>
<polygon fill="none" stroke="black" points="386.5,-3868 279.5,-3868 279.5,-3832 386.5,-3832 386.5,-3868"/>
<text text-anchor="middle" x="333" y="-3847.2" font-family="Times,serif" font-size="11.00">WPV_Editor_Parser</text>
</g>
<!-- \\WPV_Price -->
<g id="node4" class="node"><title>\\WPV_Price</title>
<polygon fill="none" stroke="black" points="368,-3814 298,-3814 298,-3778 368,-3778 368,-3814"/>
<text text-anchor="middle" x="333" y="-3793.2" font-family="Times,serif" font-size="11.00">WPV_Price</text>
</g>
<!-- \\WPV_Progress -->
<g id="node5" class="node"><title>\\WPV_Progress</title>
<polygon fill="none" stroke="black" points="375.5,-3760 290.5,-3760 290.5,-3724 375.5,-3724 375.5,-3760"/>
<text text-anchor="middle" x="333" y="-3739.2" font-family="Times,serif" font-size="11.00">WPV_Progress</text>
</g>
<!-- \\WPV_Team_Member -->
<g id="node6" class="node"><title>\\WPV_Team_Member</title>
<polygon fill="none" stroke="black" points="390.5,-3706 275.5,-3706 275.5,-3670 390.5,-3670 390.5,-3706"/>
<text text-anchor="middle" x="333" y="-3685.2" font-family="Times,serif" font-size="11.00">WPV_Team_Member</text>
</g>
<!-- \\WPV_Columns -->
<g id="node7" class="node"><title>\\WPV_Columns</title>
<polygon fill="none" stroke="black" points="376,-3652 290,-3652 290,-3616 376,-3616 376,-3652"/>
<text text-anchor="middle" x="333" y="-3631.2" font-family="Times,serif" font-size="11.00">WPV_Columns</text>
</g>
<!-- \\WPV_Blank -->
<g id="node8" class="node"><title>\\WPV_Blank</title>
<polygon fill="none" stroke="black" points="369.5,-3598 296.5,-3598 296.5,-3562 369.5,-3562 369.5,-3598"/>
<text text-anchor="middle" x="333" y="-3577.2" font-family="Times,serif" font-size="11.00">WPV_Blank</text>
</g>
<!-- \\WPV_Text_Divider -->
<g id="node9" class="node"><title>\\WPV_Text_Divider</title>
<polygon fill="none" stroke="black" points="386,-3544 280,-3544 280,-3508 386,-3508 386,-3544"/>
<text text-anchor="middle" x="333" y="-3523.2" font-family="Times,serif" font-size="11.00">WPV_Text_Divider</text>
</g>
<!-- \\WPV_Sitemap -->
<g id="node10" class="node"><title>\\WPV_Sitemap</title>
<polygon fill="none" stroke="black" points="374.5,-3490 291.5,-3490 291.5,-3454 374.5,-3454 374.5,-3490"/>
<text text-anchor="middle" x="333" y="-3469.2" font-family="Times,serif" font-size="11.00">WPV_Sitemap</text>
</g>
<!-- \\WPV_Slogan -->
<g id="node11" class="node"><title>\\WPV_Slogan</title>
<polygon fill="none" stroke="black" points="371.5,-3436 294.5,-3436 294.5,-3400 371.5,-3400 371.5,-3436"/>
<text text-anchor="middle" x="333" y="-3415.2" font-family="Times,serif" font-size="11.00">WPV_Slogan</text>
</g>
<!-- \\WPV_Twitter -->
<g id="node12" class="node"><title>\\WPV_Twitter</title>
<polygon fill="none" stroke="black" points="373,-3382 293,-3382 293,-3346 373,-3346 373,-3382"/>
<text text-anchor="middle" x="333" y="-3361.2" font-family="Times,serif" font-size="11.00">WPV_Twitter</text>
</g>
<!-- \\WPV_Gmap -->
<g id="node13" class="node"><title>\\WPV_Gmap</title>
<polygon fill="none" stroke="black" points="370,-3328 296,-3328 296,-3292 370,-3292 370,-3328"/>
<text text-anchor="middle" x="333" y="-3307.2" font-family="Times,serif" font-size="11.00">WPV_Gmap</text>
</g>
<!-- \\WPV_Expandable -->
<g id="node14" class="node"><title>\\WPV_Expandable</title>
<polygon fill="none" stroke="black" points="382,-3274 284,-3274 284,-3238 382,-3238 382,-3274"/>
<text text-anchor="middle" x="333" y="-3253.2" font-family="Times,serif" font-size="11.00">WPV_Expandable</text>
</g>
<!-- \\WPV_Contact_Info -->
<g id="node15" class="node"><title>\\WPV_Contact_Info</title>
<polygon fill="none" stroke="black" points="385,-3220 281,-3220 281,-3184 385,-3184 385,-3220"/>
<text text-anchor="middle" x="333" y="-3199.2" font-family="Times,serif" font-size="11.00">WPV_Contact_Info</text>
</g>
<!-- \\WPV_Tabs -->
<g id="node16" class="node"><title>\\WPV_Tabs</title>
<polygon fill="none" stroke="black" points="367,-3166 299,-3166 299,-3130 367,-3130 367,-3166"/>
<text text-anchor="middle" x="333" y="-3145.2" font-family="Times,serif" font-size="11.00">WPV_Tabs</text>
</g>
<!-- \\WPV_Timed_Event -->
<g id="node17" class="node"><title>\\WPV_Timed_Event</title>
<polygon fill="none" stroke="black" points="386,-3112 280,-3112 280,-3076 386,-3076 386,-3112"/>
<text text-anchor="middle" x="333" y="-3091.2" font-family="Times,serif" font-size="11.00">WPV_Timed_Event</text>
</g>
<!-- \\WPV_Linkarea -->
<g id="node18" class="node"><title>\\WPV_Linkarea</title>
<polygon fill="none" stroke="black" points="376,-3058 290,-3058 290,-3022 376,-3022 376,-3058"/>
<text text-anchor="middle" x="333" y="-3037.2" font-family="Times,serif" font-size="11.00">WPV_Linkarea</text>
</g>
<!-- \\WPV_Iframe -->
<g id="node19" class="node"><title>\\WPV_Iframe</title>
<polygon fill="none" stroke="black" points="371.5,-3004 294.5,-3004 294.5,-2968 371.5,-2968 371.5,-3004"/>
<text text-anchor="middle" x="333" y="-2983.2" font-family="Times,serif" font-size="11.00">WPV_Iframe</text>
</g>
<!-- \\WPV_Blog -->
<g id="node20" class="node"><title>\\WPV_Blog</title>
<polygon fill="none" stroke="black" points="367,-2950 299,-2950 299,-2914 367,-2914 367,-2950"/>
<text text-anchor="middle" x="333" y="-2929.2" font-family="Times,serif" font-size="11.00">WPV_Blog</text>
</g>
<!-- \\WPV_Portfolio -->
<g id="node21" class="node"><title>\\WPV_Portfolio</title>
<polygon fill="none" stroke="black" points="375.5,-2896 290.5,-2896 290.5,-2860 375.5,-2860 375.5,-2896"/>
<text text-anchor="middle" x="333" y="-2875.2" font-family="Times,serif" font-size="11.00">WPV_Portfolio</text>
</g>
<!-- \\WPV_Services -->
<g id="node22" class="node"><title>\\WPV_Services</title>
<polygon fill="none" stroke="black" points="375.5,-2842 290.5,-2842 290.5,-2806 375.5,-2806 375.5,-2842"/>
<text text-anchor="middle" x="333" y="-2821.2" font-family="Times,serif" font-size="11.00">WPV_Services</text>
</g>
<!-- \\WPV_Sc_WooCommerce_Featured -->
<g id="node23" class="node"><title>\\WPV_Sc_WooCommerce_Featured</title>
<polygon fill="none" stroke="black" points="421.5,-2788 244.5,-2788 244.5,-2752 421.5,-2752 421.5,-2788"/>
<text text-anchor="middle" x="333" y="-2767.2" font-family="Times,serif" font-size="11.00">WPV_Sc_WooCommerce_Featured</text>
</g>
<!-- \\WPV_Accordion -->
<g id="node24" class="node"><title>\\WPV_Accordion</title>
<polygon fill="none" stroke="black" points="379.5,-2734 286.5,-2734 286.5,-2698 379.5,-2698 379.5,-2734"/>
<text text-anchor="middle" x="333" y="-2713.2" font-family="Times,serif" font-size="11.00">WPV_Accordion</text>
</g>
<!-- \\WPV_Text -->
<g id="node25" class="node"><title>\\WPV_Text</title>
<polygon fill="none" stroke="black" points="366.5,-2680 299.5,-2680 299.5,-2644 366.5,-2644 366.5,-2680"/>
<text text-anchor="middle" x="333" y="-2659.2" font-family="Times,serif" font-size="11.00">WPV_Text</text>
</g>
<!-- \\WPV_Flickr -->
<g id="node26" class="node"><title>\\WPV_Flickr</title>
<polygon fill="none" stroke="black" points="369.5,-2626 296.5,-2626 296.5,-2590 369.5,-2590 369.5,-2626"/>
<text text-anchor="middle" x="333" y="-2605.2" font-family="Times,serif" font-size="11.00">WPV_Flickr</text>
</g>
<!-- \\WPV_Blockquote -->
<g id="node27" class="node"><title>\\WPV_Blockquote</title>
<polygon fill="none" stroke="black" points="381.5,-2572 284.5,-2572 284.5,-2536 381.5,-2536 381.5,-2572"/>
<text text-anchor="middle" x="333" y="-2551.2" font-family="Times,serif" font-size="11.00">WPV_Blockquote</text>
</g>
<!-- \\WPV_Tribe_Events -->
<g id="node28" class="node"><title>\\WPV_Tribe_Events</title>
<polygon fill="none" stroke="black" points="386,-2518 280,-2518 280,-2482 386,-2482 386,-2518"/>
<text text-anchor="middle" x="333" y="-2497.2" font-family="Times,serif" font-size="11.00">WPV_Tribe_Events</text>
</g>
<!-- \\WPV_Divider -->
<g id="node29" class="node"><title>\\WPV_Divider</title>
<polygon fill="none" stroke="black" points="373,-2464 293,-2464 293,-2428 373,-2428 373,-2464"/>
<text text-anchor="middle" x="333" y="-2443.2" font-family="Times,serif" font-size="11.00">WPV_Divider</text>
</g>
<!-- \\WPV_Sc_Countdown -->
<g id="node30" class="node"><title>\\WPV_Sc_Countdown</title>
<polygon fill="none" stroke="black" points="389.5,-2410 276.5,-2410 276.5,-2374 389.5,-2374 389.5,-2410"/>
<text text-anchor="middle" x="333" y="-2389.2" font-family="Times,serif" font-size="11.00">WPV_Sc_Countdown</text>
</g>
<!-- \\WPV_Editor_Shortcode_Config -->
<g id="node31" class="node"><title>\\WPV_Editor_Shortcode_Config</title>
<polygon fill="none" stroke="black" points="412,-2356 254,-2356 254,-2320 412,-2320 412,-2356"/>
<text text-anchor="middle" x="333" y="-2335.2" font-family="Times,serif" font-size="11.00">WPV_Editor_Shortcode_Config</text>
</g>
<!-- \\WPV_Editor_AJAX -->
<g id="node32" class="node"><title>\\WPV_Editor_AJAX</title>
<polygon fill="none" stroke="black" points="387,-2302 279,-2302 279,-2266 387,-2266 387,-2302"/>
<text text-anchor="middle" x="333" y="-2281.2" font-family="Times,serif" font-size="11.00">WPV_Editor_AJAX</text>
</g>
<!-- \\A -->
<g id="node33" class="node"><title>\\A</title>
<polygon fill="none" stroke="black" points="360,-2248 306,-2248 306,-2212 360,-2212 360,-2248"/>
<text text-anchor="middle" x="333" y="-2227.2" font-family="Times,serif" font-size="11.00">A</text>
</g>
<!-- \\wpv_subpages -->
<g id="node34" class="node"><title>\\wpv_subpages</title>
<polygon fill="none" stroke="black" points="373.5,-1762 292.5,-1762 292.5,-1726 373.5,-1726 373.5,-1762"/>
<text text-anchor="middle" x="333" y="-1741.2" font-family="Times,serif" font-size="11.00">wpv_subpages</text>
</g>
<!-- \\WP_Widget -->
<g id="node75" class="node"><title>\\WP_Widget</title>
<ellipse fill="none" stroke="black" cx="88" cy="-126" rx="57.6901" ry="18"/>
<text text-anchor="middle" x="88" y="-122.3" font-family="Times,serif" font-size="14.00" fill="gray">\WP_Widget</text>
</g>
<!-- \\wpv_subpages&#45;&gt;\\WP_Widget -->
<g id="edge1" class="edge"><title>\\wpv_subpages&#45;&gt;\\WP_Widget</title>
<path fill="none" stroke="black" d="M292.474,-1741.83C274.822,-1738.69 255.456,-1731.78 244,-1717 137.073,-1579.08 281.569,-283.834 172,-148 167.174,-142.017 160.925,-137.552 154.022,-134.236"/>
<polygon fill="none" stroke="black" points="154.862,-130.805 144.275,-130.391 152.293,-137.316 154.862,-130.805"/>
</g>
<!-- \\wpv_authors -->
<g id="node35" class="node"><title>\\wpv_authors</title>
<polygon fill="none" stroke="black" points="369.5,-1600 296.5,-1600 296.5,-1564 369.5,-1564 369.5,-1600"/>
<text text-anchor="middle" x="333" y="-1579.2" font-family="Times,serif" font-size="11.00">wpv_authors</text>
</g>
<!-- \\wpv_authors&#45;&gt;\\WP_Widget -->
<g id="edge2" class="edge"><title>\\wpv_authors&#45;&gt;\\WP_Widget</title>
<path fill="none" stroke="black" d="M296.101,-1580.4C277.55,-1577.56 256.281,-1570.75 244,-1555 51.526,-1308.08 369.203,-391.161 172,-148 167.158,-142.03 160.9,-137.572 153.992,-134.26"/>
<polygon fill="none" stroke="black" points="154.828,-130.828 144.241,-130.419 152.262,-137.341 154.828,-130.828"/>
</g>
<!-- \\wpv_icon_link -->
<g id="node36" class="node"><title>\\wpv_icon_link</title>
<polygon fill="none" stroke="black" points="373.5,-1546 292.5,-1546 292.5,-1510 373.5,-1510 373.5,-1546"/>
<text text-anchor="middle" x="333" y="-1525.2" font-family="Times,serif" font-size="11.00">wpv_icon_link</text>
</g>
<!-- \\wpv_icon_link&#45;&gt;\\WP_Widget -->
<g id="edge3" class="edge"><title>\\wpv_icon_link&#45;&gt;\\WP_Widget</title>
<path fill="none" stroke="black" d="M292.069,-1525.71C274.55,-1522.52 255.412,-1515.61 244,-1501 58.6516,-1263.72 361.893,-381.66 172,-148 167.152,-142.035 160.89,-137.58 153.98,-134.269"/>
<polygon fill="none" stroke="black" points="154.815,-130.837 144.228,-130.43 152.25,-137.35 154.815,-130.837"/>
</g>
<!-- \\wpv_gmap_widget -->
<g id="node37" class="node"><title>\\wpv_gmap_widget</title>
<polygon fill="none" stroke="black" points="383,-1438 283,-1438 283,-1402 383,-1402 383,-1438"/>
<text text-anchor="middle" x="333" y="-1417.2" font-family="Times,serif" font-size="11.00">wpv_gmap_widget</text>
</g>
<!-- \\wpv_gmap_widget&#45;&gt;\\WP_Widget -->
<g id="edge4" class="edge"><title>\\wpv_gmap_widget&#45;&gt;\\WP_Widget</title>
<path fill="none" stroke="black" d="M282.944,-1415.69C268.215,-1411.88 253.472,-1405.07 244,-1393 72.901,-1175 347.274,-362.661 172,-148 167.139,-142.046 160.868,-137.598 153.954,-134.291"/>
<polygon fill="none" stroke="black" points="154.785,-130.857 144.198,-130.454 152.223,-137.371 154.785,-130.857"/>
</g>
<!-- \\wpv_contactinfo -->
<g id="node38" class="node"><title>\\wpv_contactinfo</title>
<polygon fill="none" stroke="black" points="378,-1384 288,-1384 288,-1348 378,-1348 378,-1384"/>
<text text-anchor="middle" x="333" y="-1363.2" font-family="Times,serif" font-size="11.00">wpv_contactinfo</text>
</g>
<!-- \\wpv_contactinfo&#45;&gt;\\WP_Widget -->
<g id="edge5" class="edge"><title>\\wpv_contactinfo&#45;&gt;\\WP_Widget</title>
<path fill="none" stroke="black" d="M287.558,-1362.76C271.364,-1359.23 254.476,-1352.31 244,-1339 80.0245,-1130.63 339.966,-353.163 172,-148 167.131,-142.052 160.856,-137.608 153.939,-134.303"/>
<polygon fill="none" stroke="black" points="154.768,-130.868 144.181,-130.468 152.207,-137.383 154.768,-130.868"/>
</g>
<!-- \\wpv_posts -->
<g id="node39" class="node"><title>\\wpv_posts</title>
<polygon fill="none" stroke="black" points="364.5,-1330 301.5,-1330 301.5,-1294 364.5,-1294 364.5,-1330"/>
<text text-anchor="middle" x="333" y="-1309.2" font-family="Times,serif" font-size="11.00">wpv_posts</text>
</g>
<!-- \\wpv_posts&#45;&gt;\\WP_Widget -->
<g id="edge6" class="edge"><title>\\wpv_posts&#45;&gt;\\WP_Widget</title>
<path fill="none" stroke="black" d="M301.426,-1311.06C281.813,-1308.71 257.564,-1302.19 244,-1285 87.1471,-1086.27 332.659,-343.666 172,-148 167.122,-142.059 160.842,-137.619 153.923,-134.316"/>
<polygon fill="none" stroke="black" points="154.75,-130.881 144.162,-130.483 152.191,-137.396 154.75,-130.881"/>
</g>
<!-- \\wpv_advertisement -->
<g id="node40" class="node"><title>\\wpv_advertisement</title>
<polygon fill="none" stroke="black" points="384.5,-952 281.5,-952 281.5,-916 384.5,-916 384.5,-952"/>
<text text-anchor="middle" x="333" y="-931.2" font-family="Times,serif" font-size="11.00">wpv_advertisement</text>
</g>
<!-- \\wpv_advertisement&#45;&gt;\\WP_Widget -->
<g id="edge7" class="edge"><title>\\wpv_advertisement&#45;&gt;\\WP_Widget</title>
<path fill="none" stroke="black" d="M281.363,-928.986C267.266,-925.089 253.288,-918.397 244,-907 136.963,-775.67 281.552,-277.24 172,-148 167.03,-142.137 160.694,-137.743 153.746,-134.464"/>
<polygon fill="none" stroke="black" points="154.549,-131.021 143.96,-130.651 152.007,-137.543 154.549,-131.021"/>
</g>
<!-- \\WPV_Widget_Post_Formats -->
<g id="node41" class="node"><title>\\WPV_Widget_Post_Formats</title>
<polygon fill="none" stroke="black" points="405,-898 261,-898 261,-862 405,-862 405,-898"/>
<text text-anchor="middle" x="333" y="-877.2" font-family="Times,serif" font-size="11.00">WPV_Widget_Post_Formats</text>
</g>
<!-- \\WPV_Widget_Post_Formats&#45;&gt;\\WP_Widget -->
<g id="edge8" class="edge"><title>\\WPV_Widget_Post_Formats&#45;&gt;\\WP_Widget</title>
<path fill="none" stroke="black" d="M260.92,-866.771C254.494,-863.193 248.665,-858.682 244,-853 44.1379,-609.573 376.523,-387.525 172,-148 167.009,-142.154 160.661,-137.771 153.705,-134.498"/>
<polygon fill="none" stroke="black" points="154.503,-131.053 143.915,-130.69 151.966,-137.577 154.503,-131.053"/>
</g>
<!-- \\WPV_Flickr_Widget -->
<g id="node42" class="node"><title>\\WPV_Flickr_Widget</title>
<polygon fill="none" stroke="black" points="388,-1816 278,-1816 278,-1780 388,-1780 388,-1816"/>
<text text-anchor="middle" x="333" y="-1795.2" font-family="Times,serif" font-size="11.00">WPV_Flickr_Widget</text>
</g>
<!-- \\WPV_Flickr_Widget&#45;&gt;\\WP_Widget -->
<g id="edge9" class="edge"><title>\\WPV_Flickr_Widget&#45;&gt;\\WP_Widget</title>
<path fill="none" stroke="black" d="M277.792,-1792.33C264.809,-1788.33 252.315,-1781.74 244,-1771 133.509,-1628.26 285.225,-288.585 172,-148 167.179,-142.014 160.932,-137.546 154.031,-134.229"/>
<polygon fill="none" stroke="black" points="154.872,-130.798 144.285,-130.383 152.302,-137.309 154.872,-130.798"/>
</g>
<!-- \\WpvUpdateNotice -->
<g id="node43" class="node"><title>\\WpvUpdateNotice</title>
<polygon fill="none" stroke="black" points="383,-1708 283,-1708 283,-1672 383,-1672 383,-1708"/>
<text text-anchor="middle" x="333" y="-1687.2" font-family="Times,serif" font-size="11.00">WpvUpdateNotice</text>
</g>
<!-- \\WpvAdmin -->
<g id="node44" class="node"><title>\\WpvAdmin</title>
<polygon fill="none" stroke="black" points="367,-1654 299,-1654 299,-1618 367,-1618 367,-1654"/>
<text text-anchor="middle" x="333" y="-1633.2" font-family="Times,serif" font-size="11.00">WpvAdmin</text>
</g>
<!-- \\WpvFontsHelper -->
<g id="node45" class="node"><title>\\WpvFontsHelper</title>
<polygon fill="none" stroke="black" points="379,-2032 287,-2032 287,-1996 379,-1996 379,-2032"/>
<text text-anchor="middle" x="333" y="-2011.2" font-family="Times,serif" font-size="11.00">WpvFontsHelper</text>
</g>
<!-- \\WpvAjax -->
<g id="node52" class="node"><title>\\WpvAjax</title>
<polygon fill="none" stroke="black" points="117.5,-2032 58.5,-2032 58.5,-1996 117.5,-1996 117.5,-2032"/>
<text text-anchor="middle" x="88" y="-2011.2" font-family="Times,serif" font-size="11.00">WpvAjax</text>
</g>
<!-- \\WpvFontsHelper&#45;&gt;\\WpvAjax -->
<g id="edge10" class="edge"><title>\\WpvFontsHelper&#45;&gt;\\WpvAjax</title>
<path fill="none" stroke="black" d="M286.863,-2014C241.089,-2014 170.996,-2014 127.687,-2014"/>
<polygon fill="none" stroke="black" points="127.55,-2010.5 117.55,-2014 127.55,-2017.5 127.55,-2010.5"/>
</g>
<!-- \\WpvShortcodesGenerator -->
<g id="node46" class="node"><title>\\WpvShortcodesGenerator</title>
<polygon fill="none" stroke="black" points="398.5,-2140 267.5,-2140 267.5,-2104 398.5,-2104 398.5,-2140"/>
<text text-anchor="middle" x="333" y="-2119.2" font-family="Times,serif" font-size="11.00">WpvShortcodesGenerator</text>
</g>
<!-- \\WpvConfigGenerator -->
<g id="node49" class="node"><title>\\WpvConfigGenerator</title>
<polygon fill="none" stroke="black" points="144.5,-2167 31.5,-2167 31.5,-2131 144.5,-2131 144.5,-2167"/>
<text text-anchor="middle" x="88" y="-2146.2" font-family="Times,serif" font-size="11.00">WpvConfigGenerator</text>
</g>
<!-- \\WpvShortcodesGenerator&#45;&gt;\\WpvConfigGenerator -->
<g id="edge11" class="edge"><title>\\WpvShortcodesGenerator&#45;&gt;\\WpvConfigGenerator</title>
<path fill="none" stroke="black" d="M267.2,-2129.2C232.393,-2133.07 189.584,-2137.82 154.649,-2141.71"/>
<polygon fill="none" stroke="black" points="154.101,-2138.24 144.549,-2142.83 154.875,-2145.2 154.101,-2138.24"/>
</g>
<!-- \\WpvSidebarInterface -->
<g id="node47" class="node"><title>\\WpvSidebarInterface</title>
<polygon fill="none" stroke="black" points="389,-1492 277,-1492 277,-1456 389,-1456 389,-1492"/>
<text text-anchor="middle" x="333" y="-1471.2" font-family="Times,serif" font-size="11.00">WpvSidebarInterface</text>
</g>
<!-- \\WpvIconsHelper -->
<g id="node48" class="node"><title>\\WpvIconsHelper</title>
<polygon fill="none" stroke="black" points="379,-2086 287,-2086 287,-2050 379,-2050 379,-2086"/>
<text text-anchor="middle" x="333" y="-2065.2" font-family="Times,serif" font-size="11.00">WpvIconsHelper</text>
</g>
<!-- \\WpvIconsHelper&#45;&gt;\\WpvAjax -->
<g id="edge12" class="edge"><title>\\WpvIconsHelper&#45;&gt;\\WpvAjax</title>
<path fill="none" stroke="black" d="M286.863,-2057.97C240.992,-2047.78 170.7,-2032.16 127.413,-2022.54"/>
<polygon fill="none" stroke="black" points="128.071,-2019.1 117.55,-2020.34 126.552,-2025.93 128.071,-2019.1"/>
</g>
<!-- \\WpvSkinManagement -->
<g id="node50" class="node"><title>\\WpvSkinManagement</title>
<polygon fill="none" stroke="black" points="390.5,-1978 275.5,-1978 275.5,-1942 390.5,-1942 390.5,-1978"/>
<text text-anchor="middle" x="333" y="-1957.2" font-family="Times,serif" font-size="11.00">WpvSkinManagement</text>
</g>
<!-- \\WpvSkinManagement&#45;&gt;\\WpvAjax -->
<g id="edge13" class="edge"><title>\\WpvSkinManagement&#45;&gt;\\WpvAjax</title>
<path fill="none" stroke="black" d="M275.334,-1972.59C229.921,-1982.68 167.419,-1996.57 127.609,-2005.42"/>
<polygon fill="none" stroke="black" points="126.757,-2002.02 117.755,-2007.61 128.276,-2008.86 126.757,-2002.02"/>
</g>
<!-- \\WpvMetaboxesGenerator -->
<g id="node51" class="node"><title>\\WpvMetaboxesGenerator</title>
<polygon fill="none" stroke="black" points="398.5,-2194 267.5,-2194 267.5,-2158 398.5,-2158 398.5,-2194"/>
<text text-anchor="middle" x="333" y="-2173.2" font-family="Times,serif" font-size="11.00">WpvMetaboxesGenerator</text>
</g>
<!-- \\WpvMetaboxesGenerator&#45;&gt;\\WpvConfigGenerator -->
<g id="edge14" class="edge"><title>\\WpvMetaboxesGenerator&#45;&gt;\\WpvConfigGenerator</title>
<path fill="none" stroke="black" d="M267.2,-2168.8C232.393,-2164.93 189.584,-2160.18 154.649,-2156.29"/>
<polygon fill="none" stroke="black" points="154.875,-2152.8 144.549,-2155.17 154.101,-2159.76 154.875,-2152.8"/>
</g>
<!-- \\Version_Checker -->
<g id="node53" class="node"><title>\\Version_Checker</title>
<polygon fill="none" stroke="black" points="380.5,-1276 285.5,-1276 285.5,-1240 380.5,-1240 380.5,-1276"/>
<text text-anchor="middle" x="333" y="-1255.2" font-family="Times,serif" font-size="11.00">Version_Checker</text>
</g>
<!-- \\WpvEnqueues -->
<g id="node54" class="node"><title>\\WpvEnqueues</title>
<polygon fill="none" stroke="black" points="373,-1222 293,-1222 293,-1186 373,-1186 373,-1222"/>
<text text-anchor="middle" x="333" y="-1201.2" font-family="Times,serif" font-size="11.00">WpvEnqueues</text>
</g>
<!-- \\WpvFramework -->
<g id="node55" class="node"><title>\\WpvFramework</title>
<polygon fill="none" stroke="black" points="377.5,-1168 288.5,-1168 288.5,-1132 377.5,-1132 377.5,-1168"/>
<text text-anchor="middle" x="333" y="-1147.2" font-family="Times,serif" font-size="11.00">WpvFramework</text>
</g>
<!-- \\WpvMobileDetect -->
<g id="node56" class="node"><title>\\WpvMobileDetect</title>
<polygon fill="none" stroke="black" points="382.5,-1114 283.5,-1114 283.5,-1078 382.5,-1078 382.5,-1114"/>
<text text-anchor="middle" x="333" y="-1093.2" font-family="Times,serif" font-size="11.00">WpvMobileDetect</text>
</g>
<!-- \\WpvLessc -->
<g id="node57" class="node"><title>\\WpvLessc</title>
<polygon fill="none" stroke="black" points="365,-1060 301,-1060 301,-1024 365,-1024 365,-1060"/>
<text text-anchor="middle" x="333" y="-1039.2" font-family="Times,serif" font-size="11.00">WpvLessc</text>
</g>
<!-- \\WpvLesscParser -->
<g id="node58" class="node"><title>\\WpvLesscParser</title>
<polygon fill="none" stroke="black" points="379,-1006 287,-1006 287,-970 379,-970 379,-1006"/>
<text text-anchor="middle" x="333" y="-985.2" font-family="Times,serif" font-size="11.00">WpvLesscParser</text>
</g>
<!-- \\WpvLesscFormatter_classic -->
<g id="node59" class="node"><title>\\WpvLesscFormatter_classic</title>
<polygon fill="none" stroke="black" points="159.5,-1897 16.5,-1897 16.5,-1861 159.5,-1861 159.5,-1897"/>
<text text-anchor="middle" x="88" y="-1876.2" font-family="Times,serif" font-size="11.00">WpvLesscFormatter_classic</text>
</g>
<!-- \\WpvLesscFormatter_compressed -->
<g id="node60" class="node"><title>\\WpvLesscFormatter_compressed</title>
<polygon fill="none" stroke="black" points="415.5,-1870 250.5,-1870 250.5,-1834 415.5,-1834 415.5,-1870"/>
<text text-anchor="middle" x="333" y="-1849.2" font-family="Times,serif" font-size="11.00">WpvLesscFormatter_compressed</text>
</g>
<!-- \\WpvLesscFormatter_compressed&#45;&gt;\\WpvLesscFormatter_classic -->
<g id="edge15" class="edge"><title>\\WpvLesscFormatter_compressed&#45;&gt;\\WpvLesscFormatter_classic</title>
<path fill="none" stroke="black" d="M250.409,-1861.07C224.482,-1863.95 195.828,-1867.13 169.947,-1870.01"/>
<polygon fill="none" stroke="black" points="169.352,-1866.55 159.8,-1871.13 170.125,-1873.51 169.352,-1866.55"/>
</g>
<!-- \\WpvLesscFormatter_lessjs -->
<g id="node61" class="node"><title>\\WpvLesscFormatter_lessjs</title>
<polygon fill="none" stroke="black" points="401.5,-1924 264.5,-1924 264.5,-1888 401.5,-1888 401.5,-1924"/>
<text text-anchor="middle" x="333" y="-1903.2" font-family="Times,serif" font-size="11.00">WpvLesscFormatter_lessjs</text>
</g>
<!-- \\WpvLesscFormatter_lessjs&#45;&gt;\\WpvLesscFormatter_classic -->
<g id="edge16" class="edge"><title>\\WpvLesscFormatter_lessjs&#45;&gt;\\WpvLesscFormatter_classic</title>
<path fill="none" stroke="black" d="M264.311,-1898.48C235.039,-1895.23 200.546,-1891.39 169.934,-1887.99"/>
<polygon fill="none" stroke="black" points="170.04,-1884.48 159.714,-1886.86 169.266,-1891.44 170.04,-1884.48"/>
</g>
<!-- \\WpvTemplates -->
<g id="node62" class="node"><title>\\WpvTemplates</title>
<polygon fill="none" stroke="black" points="375,-844 291,-844 291,-808 375,-808 375,-844"/>
<text text-anchor="middle" x="333" y="-823.2" font-family="Times,serif" font-size="11.00">WpvTemplates</text>
</g>
<!-- \\WpvFormatFilter -->
<g id="node63" class="node"><title>\\WpvFormatFilter</title>
<polygon fill="none" stroke="black" points="379.5,-790 286.5,-790 286.5,-754 379.5,-754 379.5,-790"/>
<text text-anchor="middle" x="333" y="-769.2" font-family="Times,serif" font-size="11.00">WpvFormatFilter</text>
</g>
<!-- \\WpvPostFormats -->
<g id="node64" class="node"><title>\\WpvPostFormats</title>
<polygon fill="none" stroke="black" points="379,-736 287,-736 287,-700 379,-700 379,-736"/>
<text text-anchor="middle" x="333" y="-715.2" font-family="Times,serif" font-size="11.00">WpvPostFormats</text>
</g>
<!-- \\WpvShortcodeOverrides -->
<g id="node65" class="node"><title>\\WpvShortcodeOverrides</title>
<polygon fill="none" stroke="black" points="396,-682 270,-682 270,-646 396,-646 396,-682"/>
<text text-anchor="middle" x="333" y="-661.2" font-family="Times,serif" font-size="11.00">WpvShortcodeOverrides</text>
</g>
<!-- \\WpvSidebars -->
<g id="node66" class="node"><title>\\WpvSidebars</title>
<polygon fill="none" stroke="black" points="371,-628 295,-628 295,-592 371,-592 371,-628"/>
<text text-anchor="middle" x="333" y="-607.2" font-family="Times,serif" font-size="11.00">WpvSidebars</text>
</g>
<!-- \\WpvLess -->
<g id="node67" class="node"><title>\\WpvLess</title>
<polygon fill="none" stroke="black" points="362.5,-574 303.5,-574 303.5,-538 362.5,-538 362.5,-574"/>
<text text-anchor="middle" x="333" y="-553.2" font-family="Times,serif" font-size="11.00">WpvLess</text>
</g>
<!-- \\WpvMenuWalker -->
<g id="node68" class="node"><title>\\WpvMenuWalker</title>
<polygon fill="none" stroke="black" points="381,-520 285,-520 285,-484 381,-484 381,-520"/>
<text text-anchor="middle" x="333" y="-499.2" font-family="Times,serif" font-size="11.00">WpvMenuWalker</text>
</g>
<!-- \\Walker_Nav_Menu -->
<g id="node76" class="node"><title>\\Walker_Nav_Menu</title>
<ellipse fill="none" stroke="black" cx="88" cy="-72" rx="83.6854" ry="18"/>
<text text-anchor="middle" x="88" y="-68.3" font-family="Times,serif" font-size="14.00" fill="gray">\Walker_Nav_Menu</text>
</g>
<!-- \\WpvMenuWalker&#45;&gt;\\Walker_Nav_Menu -->
<g id="edge17" class="edge"><title>\\WpvMenuWalker&#45;&gt;\\Walker_Nav_Menu</title>
<path fill="none" stroke="black" d="M284.765,-497.163C269.804,-493.347 254.457,-486.658 244,-475 130.388,-348.341 284.543,-226.609 172,-99 168.58,-95.1218 164.596,-91.7978 160.261,-88.9491"/>
<polygon fill="none" stroke="black" points="161.975,-85.8977 151.545,-84.0361 158.538,-91.9956 161.975,-85.8977"/>
</g>
<!-- \\WPV_Gallery -->
<g id="node69" class="node"><title>\\WPV_Gallery</title>
<polygon fill="none" stroke="black" points="373,-466 293,-466 293,-430 373,-430 373,-466"/>
<text text-anchor="middle" x="333" y="-445.2" font-family="Times,serif" font-size="11.00">WPV_Gallery</text>
</g>
<!-- \\WPV_RevSlider_Import -->
<g id="node70" class="node"><title>\\WPV_RevSlider_Import</title>
<polygon fill="none" stroke="black" points="395.5,-196 270.5,-196 270.5,-160 395.5,-160 395.5,-196"/>
<text text-anchor="middle" x="333" y="-175.2" font-family="Times,serif" font-size="11.00">WPV_RevSlider_Import</text>
</g>
<!-- \\WP_Importer -->
<g id="node77" class="node"><title>\\WP_Importer</title>
<ellipse fill="none" stroke="black" cx="88" cy="-18" rx="62.2891" ry="18"/>
<text text-anchor="middle" x="88" y="-14.3" font-family="Times,serif" font-size="14.00" fill="gray">\WP_Importer</text>
</g>
<!-- \\WPV_RevSlider_Import&#45;&gt;\\WP_Importer -->
<g id="edge18" class="edge"><title>\\WPV_RevSlider_Import&#45;&gt;\\WP_Importer</title>
<path fill="none" stroke="black" d="M314.961,-159.973C287.393,-131.763 230.199,-77.0978 172,-45 163.629,-40.3834 154.344,-36.4025 145.103,-33.0243"/>
<polygon fill="none" stroke="black" points="146.123,-29.6741 135.529,-29.7207 143.84,-36.2913 146.123,-29.6741"/>
</g>
<!-- \\WPV_Import -->
<g id="node71" class="node"><title>\\WPV_Import</title>
<polygon fill="none" stroke="black" points="371,-412 295,-412 295,-376 371,-376 371,-412"/>
<text text-anchor="middle" x="333" y="-391.2" font-family="Times,serif" font-size="11.00">WPV_Import</text>
</g>
<!-- \\WPV_Import&#45;&gt;\\WP_Importer -->
<g id="edge19" class="edge"><title>\\WPV_Import&#45;&gt;\\WP_Importer</title>
<path fill="none" stroke="black" d="M294.907,-391.154C277.173,-387.889 257.023,-381.077 244,-367 144.413,-259.356 270.679,-153.477 172,-45 166.551,-39.0102 159.761,-34.3445 152.426,-30.7113"/>
<polygon fill="none" stroke="black" points="153.475,-27.3533 142.904,-26.6392 150.722,-33.7895 153.475,-27.3533"/>
</g>
<!-- \\WPV_WXR_Parser -->
<g id="node72" class="node"><title>\\WPV_WXR_Parser</title>
<polygon fill="none" stroke="black" points="386.5,-304 279.5,-304 279.5,-268 386.5,-268 386.5,-304"/>
<text text-anchor="middle" x="333" y="-283.2" font-family="Times,serif" font-size="11.00">WPV_WXR_Parser</text>
</g>
<!-- \\WPV_WXR_Parser_Regex -->
<g id="node73" class="node"><title>\\WPV_WXR_Parser_Regex</title>
<polygon fill="none" stroke="black" points="403,-250 263,-250 263,-214 403,-214 403,-250"/>
<text text-anchor="middle" x="333" y="-229.2" font-family="Times,serif" font-size="11.00">WPV_WXR_Parser_Regex</text>
</g>
<!-- \\WPV_Widget_Import -->
<g id="node74" class="node"><title>\\WPV_Widget_Import</title>
<polygon fill="none" stroke="black" points="389.5,-358 276.5,-358 276.5,-322 389.5,-322 389.5,-358"/>
<text text-anchor="middle" x="333" y="-337.2" font-family="Times,serif" font-size="11.00">WPV_Widget_Import</text>
</g>
<!-- \\WPV_Widget_Import&#45;&gt;\\WP_Importer -->
<g id="edge20" class="edge"><title>\\WPV_Widget_Import&#45;&gt;\\WP_Importer</title>
<path fill="none" stroke="black" d="M276.087,-331.999C264.209,-327.978 252.657,-321.968 244,-313 158.339,-224.266 256.912,-134.45 172,-45 166.425,-39.1273 159.561,-34.5298 152.189,-30.9311"/>
<polygon fill="none" stroke="black" points="153.212,-27.5632 142.639,-26.8862 150.482,-34.009 153.212,-27.5632"/>
</g>
</g>
</svg>
